<mxfile host="app.diagrams.net" modified="2023-07-24T15:19:54.933Z" agent="Mozilla/5.0 (Windows NT 10.0; Win64; x64) AppleWebKit/537.36 (KHTML, like Gecko) Chrome/114.0.0.0 Safari/537.36" etag="u4MntR_2ZUE7KsXceBV_" version="21.6.5" type="github">
  <diagram id="kuvdwOfbVBNi5Gu6zfzG" name="Trang-1">
    <mxGraphModel dx="1050" dy="1742" grid="1" gridSize="10" guides="1" tooltips="1" connect="1" arrows="1" fold="1" page="1" pageScale="1" pageWidth="827" pageHeight="1169" math="0" shadow="0">
      <root>
        <mxCell id="0" />
        <mxCell id="1" parent="0" />
        <mxCell id="RJY6VPwGWgeiENAhCizJ-1" value="Start" style="ellipse;whiteSpace=wrap;html=1;" parent="1" vertex="1">
          <mxGeometry x="312.5" y="-220" width="120" height="80" as="geometry" />
        </mxCell>
        <mxCell id="SR2VgarE3KyTox3N2VkE-1" value="" style="edgeStyle=orthogonalEdgeStyle;rounded=0;orthogonalLoop=1;jettySize=auto;html=1;entryX=0.5;entryY=0;entryDx=0;entryDy=0;" parent="1" source="o0lZUKYAZ2Y6aPnKu2QU-1" target="3CbPdleRt_05IGa1ygoK-2" edge="1">
          <mxGeometry relative="1" as="geometry">
            <mxPoint x="155" y="155" as="sourcePoint" />
            <mxPoint x="373" y="180" as="targetPoint" />
          </mxGeometry>
        </mxCell>
        <mxCell id="SR2VgarE3KyTox3N2VkE-2" value="" style="edgeStyle=orthogonalEdgeStyle;rounded=0;orthogonalLoop=1;jettySize=auto;html=1;entryX=0.5;entryY=0;entryDx=0;entryDy=0;" parent="1" source="sWr3XtEfw-_3o_Yodgy6-1" target="o0lZUKYAZ2Y6aPnKu2QU-1" edge="1">
          <mxGeometry relative="1" as="geometry">
            <mxPoint x="373" y="170" as="targetPoint" />
            <mxPoint x="373" y="90" as="sourcePoint" />
          </mxGeometry>
        </mxCell>
        <mxCell id="o0lZUKYAZ2Y6aPnKu2QU-1" value="Search the phone that you want to update(By the phone id or the phone name)" style="rounded=1;whiteSpace=wrap;html=1;" parent="1" vertex="1">
          <mxGeometry x="295" y="20" width="155" height="70" as="geometry" />
        </mxCell>
        <mxCell id="3CbPdleRt_05IGa1ygoK-3" style="edgeStyle=orthogonalEdgeStyle;rounded=0;orthogonalLoop=1;jettySize=auto;html=1;exitX=1;exitY=0.5;exitDx=0;exitDy=0;entryX=0.5;entryY=0;entryDx=0;entryDy=0;" parent="1" source="3CbPdleRt_05IGa1ygoK-2" target="3CbPdleRt_05IGa1ygoK-5" edge="1">
          <mxGeometry relative="1" as="geometry">
            <mxPoint x="600" y="260" as="targetPoint" />
          </mxGeometry>
        </mxCell>
        <mxCell id="3CbPdleRt_05IGa1ygoK-4" style="edgeStyle=orthogonalEdgeStyle;rounded=0;orthogonalLoop=1;jettySize=auto;html=1;exitX=0;exitY=0.5;exitDx=0;exitDy=0;" parent="1" source="3CbPdleRt_05IGa1ygoK-2" target="3CbPdleRt_05IGa1ygoK-6" edge="1">
          <mxGeometry relative="1" as="geometry">
            <mxPoint x="160" y="260" as="targetPoint" />
          </mxGeometry>
        </mxCell>
        <mxCell id="3CbPdleRt_05IGa1ygoK-2" value="If there is a value in the &lt;br&gt;database" style="rhombus;whiteSpace=wrap;html=1;" parent="1" vertex="1">
          <mxGeometry x="287.5" y="150" width="170" height="100" as="geometry" />
        </mxCell>
        <mxCell id="3CbPdleRt_05IGa1ygoK-12" value="" style="edgeStyle=orthogonalEdgeStyle;rounded=0;orthogonalLoop=1;jettySize=auto;html=1;exitX=0.5;exitY=1;exitDx=0;exitDy=0;entryX=0.5;entryY=0;entryDx=0;entryDy=0;" parent="1" source="3CbPdleRt_05IGa1ygoK-5" target="3CbPdleRt_05IGa1ygoK-11" edge="1">
          <mxGeometry relative="1" as="geometry" />
        </mxCell>
        <mxCell id="3CbPdleRt_05IGa1ygoK-5" value="SetString A,B,C&lt;br&gt;from the Search&amp;nbsp;&lt;br&gt;variable(from the id&amp;nbsp;&lt;br&gt;that you input it)" style="shape=parallelogram;perimeter=parallelogramPerimeter;whiteSpace=wrap;html=1;fixedSize=1;" parent="1" vertex="1">
          <mxGeometry x="530" y="260" width="150" height="70" as="geometry" />
        </mxCell>
        <mxCell id="3CbPdleRt_05IGa1ygoK-10" style="edgeStyle=orthogonalEdgeStyle;rounded=0;orthogonalLoop=1;jettySize=auto;html=1;exitX=0.5;exitY=1;exitDx=0;exitDy=0;" parent="1" source="3CbPdleRt_05IGa1ygoK-6" edge="1">
          <mxGeometry relative="1" as="geometry">
            <mxPoint x="370" y="120" as="targetPoint" />
            <mxPoint x="150" y="350" as="sourcePoint" />
            <Array as="points">
              <mxPoint x="160" y="360" />
              <mxPoint x="60" y="360" />
              <mxPoint x="60" y="120" />
            </Array>
          </mxGeometry>
        </mxCell>
        <mxCell id="3CbPdleRt_05IGa1ygoK-6" value="Print &quot;The item&lt;br&gt;you searched are &lt;br&gt;not on the table&quot;" style="shape=parallelogram;perimeter=parallelogramPerimeter;whiteSpace=wrap;html=1;fixedSize=1;" parent="1" vertex="1">
          <mxGeometry x="100" y="260" width="120" height="60" as="geometry" />
        </mxCell>
        <mxCell id="3CbPdleRt_05IGa1ygoK-8" value="False" style="text;html=1;strokeColor=none;fillColor=none;align=center;verticalAlign=middle;whiteSpace=wrap;rounded=0;" parent="1" vertex="1">
          <mxGeometry x="235" y="170" width="60" height="30" as="geometry" />
        </mxCell>
        <mxCell id="3CbPdleRt_05IGa1ygoK-9" value="True" style="text;html=1;strokeColor=none;fillColor=none;align=center;verticalAlign=middle;whiteSpace=wrap;rounded=0;" parent="1" vertex="1">
          <mxGeometry x="457.5" y="170" width="60" height="30" as="geometry" />
        </mxCell>
        <mxCell id="3CbPdleRt_05IGa1ygoK-13" style="edgeStyle=orthogonalEdgeStyle;rounded=0;orthogonalLoop=1;jettySize=auto;html=1;exitX=0.5;exitY=1;exitDx=0;exitDy=0;entryX=0.5;entryY=0;entryDx=0;entryDy=0;" parent="1" source="3CbPdleRt_05IGa1ygoK-11" target="3CbPdleRt_05IGa1ygoK-14" edge="1">
          <mxGeometry relative="1" as="geometry">
            <mxPoint x="605" y="550" as="targetPoint" />
          </mxGeometry>
        </mxCell>
        <mxCell id="3CbPdleRt_05IGa1ygoK-11" value="Change A,B,C&amp;nbsp;&lt;br&gt;data from that id" style="shape=parallelogram;perimeter=parallelogramPerimeter;whiteSpace=wrap;html=1;fixedSize=1;" parent="1" vertex="1">
          <mxGeometry x="537.5" y="390" width="135" height="60" as="geometry" />
        </mxCell>
        <mxCell id="3CbPdleRt_05IGa1ygoK-18" value="" style="edgeStyle=orthogonalEdgeStyle;rounded=0;orthogonalLoop=1;jettySize=auto;html=1;" parent="1" source="3CbPdleRt_05IGa1ygoK-14" target="3CbPdleRt_05IGa1ygoK-17" edge="1">
          <mxGeometry relative="1" as="geometry" />
        </mxCell>
        <mxCell id="3CbPdleRt_05IGa1ygoK-14" value="Create a statement &quot;&lt;br style=&quot;border-color: var(--border-color);&quot;&gt;update table set(A,B,C)&lt;br style=&quot;border-color: var(--border-color);&quot;&gt;value(?,?,?)" style="rounded=0;whiteSpace=wrap;html=1;" parent="1" vertex="1">
          <mxGeometry x="545" y="530" width="120" height="70" as="geometry" />
        </mxCell>
        <mxCell id="3CbPdleRt_05IGa1ygoK-21" value="" style="edgeStyle=orthogonalEdgeStyle;rounded=0;orthogonalLoop=1;jettySize=auto;html=1;" parent="1" source="3CbPdleRt_05IGa1ygoK-17" target="3CbPdleRt_05IGa1ygoK-20" edge="1">
          <mxGeometry relative="1" as="geometry" />
        </mxCell>
        <mxCell id="3CbPdleRt_05IGa1ygoK-17" value="Execute the statement" style="rounded=0;whiteSpace=wrap;html=1;" parent="1" vertex="1">
          <mxGeometry x="545" y="680" width="120" height="70" as="geometry" />
        </mxCell>
        <mxCell id="3CbPdleRt_05IGa1ygoK-23" style="edgeStyle=orthogonalEdgeStyle;rounded=0;orthogonalLoop=1;jettySize=auto;html=1;exitX=0.5;exitY=1;exitDx=0;exitDy=0;entryX=1;entryY=0.5;entryDx=0;entryDy=0;" parent="1" source="3CbPdleRt_05IGa1ygoK-20" target="3CbPdleRt_05IGa1ygoK-22" edge="1">
          <mxGeometry relative="1" as="geometry" />
        </mxCell>
        <mxCell id="3CbPdleRt_05IGa1ygoK-20" value="Print&quot;Record Updateee!!!!!&lt;span style=&quot;background-color: initial;&quot;&gt;&quot;&lt;br&gt;&lt;/span&gt;and load the database table" style="shape=parallelogram;perimeter=parallelogramPerimeter;whiteSpace=wrap;html=1;fixedSize=1;rounded=0;" parent="1" vertex="1">
          <mxGeometry x="537.5" y="840" width="135" height="75" as="geometry" />
        </mxCell>
        <mxCell id="3CbPdleRt_05IGa1ygoK-22" value="STOP" style="ellipse;whiteSpace=wrap;html=1;" parent="1" vertex="1">
          <mxGeometry x="260" y="915" width="120" height="80" as="geometry" />
        </mxCell>
        <mxCell id="sWr3XtEfw-_3o_Yodgy6-2" value="" style="edgeStyle=orthogonalEdgeStyle;rounded=0;orthogonalLoop=1;jettySize=auto;html=1;entryX=0.5;entryY=0;entryDx=0;entryDy=0;" edge="1" parent="1" source="RJY6VPwGWgeiENAhCizJ-1" target="sWr3XtEfw-_3o_Yodgy6-1">
          <mxGeometry relative="1" as="geometry">
            <mxPoint x="373" y="20" as="targetPoint" />
            <mxPoint x="373" y="-140" as="sourcePoint" />
          </mxGeometry>
        </mxCell>
        <mxCell id="sWr3XtEfw-_3o_Yodgy6-1" value="Search" style="rounded=0;whiteSpace=wrap;html=1;" vertex="1" parent="1">
          <mxGeometry x="312.5" y="-90" width="120" height="60" as="geometry" />
        </mxCell>
      </root>
    </mxGraphModel>
  </diagram>
</mxfile>
